HIERARCHY
ROOT hip
{
  OFFSET 0 0 0
  CHANNELS 6 Xposition Yposition Zposition Zrotation Yrotation Xrotation
  JOINT abdomen
  {
    OFFSET 0 20.6881 -0.73152
    CHANNELS 3 Zrotation Xrotation Yrotation
    JOINT chest
    {
      OFFSET 0 11.7043 -0.48768
      CHANNELS 3 Zrotation Xrotation Yrotation
      JOINT neck
      {
        OFFSET 0 22.1894 -2.19456
        CHANNELS 3 Zrotation Xrotation Yrotation
        JOINT head
        {
          OFFSET -0.24384 7.07133 1.2192
          CHANNELS 3 Zrotation Xrotation Yrotation
          JOINT leftEye
          {
            OFFSET 4.14528 8.04674 8.04672
            CHANNELS 3 Zrotation Xrotation Yrotation
            End Site
            {
              OFFSET 1 0 0
            }
          }
          JOINT rightEye
          {
            OFFSET -3.6576 8.04674 8.04672
            CHANNELS 3 Zrotation Xrotation Yrotation
            End Site
            {
              OFFSET 1 0 0
            }
          }
        }
      }
      JOINT rCollar
      {
        OFFSET -2.68224 19.2634 -4.8768
        CHANNELS 3 Zrotation Xrotation Yrotation
        JOINT rShldr
        {
          OFFSET -8.77824 -1.95073 1.46304
          CHANNELS 3 Zrotation Xrotation Yrotation
          JOINT rForeArm
          {
            OFFSET -28.1742 -1.7115 0.48768
            CHANNELS 3 Zrotation Xrotation Yrotation
            JOINT rHand
            {
              OFFSET -22.5879 0.773209 7.07136
              CHANNELS 3 Zrotation Xrotation Yrotation
              JOINT rThumb1
              {
                OFFSET -1.2192 -0.487915 3.41376
                CHANNELS 3 Zrotation Xrotation Yrotation
                JOINT rThumb2
                {
                  OFFSET -3.37035 -0.52449 3.41376
                  CHANNELS 3 Zrotation Xrotation Yrotation
                  End Site
                  {
                    OFFSET -1.78271 -1.18214 1.43049
                  }
                }
              }
              JOINT rIndex1
              {
                OFFSET -7.75947 0.938293 5.60832
                CHANNELS 3 Zrotation Xrotation Yrotation
                JOINT rIndex2
                {
                  OFFSET -2.54057 -0.884171 1.56538
                  CHANNELS 3 Zrotation Xrotation Yrotation
                  End Site
                  {
                    OFFSET -1.62519 -0.234802 1.16502
                  }
                }
              }
              JOINT rMid1
              {
                OFFSET -8.24714 1.18213 3.41376
                CHANNELS 3 Zrotation Xrotation Yrotation
                JOINT rMid2
                {
                  OFFSET -3.10165 -0.590103 1.0647
                  CHANNELS 3 Zrotation Xrotation Yrotation
                  End Site
                  {
                    OFFSET -2.48547 -0.328903 0.83742
                  }
                }
              }
              JOINT rRing1
              {
                OFFSET -8.82822 0.546677 1.51678
                CHANNELS 3 Zrotation Xrotation Yrotation
                JOINT rRing2
                {
                  OFFSET -2.60934 -0.819778 -0.0198488
                  CHANNELS 3 Zrotation Xrotation Yrotation
                  End Site
                  {
                    OFFSET -2.33842 -0.294052 0.168128
                  }
                }
              }
              JOINT rPinky1
              {
                OFFSET -8.27202 -0.0477905 -0.4584
                CHANNELS 3 Zrotation Xrotation Yrotation
                JOINT rPinky2
                {
                  OFFSET -1.82734 -0.647385 -0.700984
                  CHANNELS 3 Zrotation Xrotation Yrotation
                  End Site
                  {
                    OFFSET -1.69225 -0.51767 -0.607171
                  }
                }
              }
            }
          }
        }
      }
      JOINT lCollar
      {
        OFFSET 2.68224 19.2634 -4.8768
        CHANNELS 3 Zrotation Xrotation Yrotation
        JOINT lShldr
        {
          OFFSET 8.77824 -1.95073 1.46304
          CHANNELS 3 Zrotation Xrotation Yrotation
          JOINT lForeArm
          {
            OFFSET 28.1742 -1.7115 0.48768
            CHANNELS 3 Zrotation Xrotation Yrotation
            JOINT lHand
            {
              OFFSET 22.5879 0.773209 7.07136
              CHANNELS 3 Zrotation Xrotation Yrotation
              JOINT lThumb1
              {
                OFFSET 1.2192 -0.487915 3.41376
                CHANNELS 3 Zrotation Xrotation Yrotation
                JOINT lThumb2
                {
                  OFFSET 3.37035 -0.52449 3.41376
                  CHANNELS 3 Zrotation Xrotation Yrotation
                  End Site
                  {
                    OFFSET 1.78271 -1.18214 1.43049
                  }
                }
              }
              JOINT lIndex1
              {
                OFFSET 7.75947 0.938293 5.60832
                CHANNELS 3 Zrotation Xrotation Yrotation
                JOINT lIndex2
                {
                  OFFSET 2.54057 -0.884171 1.56538
                  CHANNELS 3 Zrotation Xrotation Yrotation
                  End Site
                  {
                    OFFSET 1.62519 -0.234802 1.16502
                  }
                }
              }
              JOINT lMid1
              {
                OFFSET 8.24714 1.18213 3.41376
                CHANNELS 3 Zrotation Xrotation Yrotation
                JOINT lMid2
                {
                  OFFSET 3.10165 -0.590103 1.0647
                  CHANNELS 3 Zrotation Xrotation Yrotation
                  End Site
                  {
                    OFFSET 2.48547 -0.328903 0.83742
                  }
                }
              }
              JOINT lRing1
              {
                OFFSET 8.82822 0.546677 1.51678
                CHANNELS 3 Zrotation Xrotation Yrotation
                JOINT lRing2
                {
                  OFFSET 2.60934 -0.819778 -0.0198488
                  CHANNELS 3 Zrotation Xrotation Yrotation
                  End Site
                  {
                    OFFSET 2.33842 -0.294052 0.168128
                  }
                }
              }
              JOINT lPinky1
              {
                OFFSET 8.27202 -0.0477905 -0.4584
                CHANNELS 3 Zrotation Xrotation Yrotation
                JOINT lPinky2
                {
                  OFFSET 1.82734 -0.647385 -0.700984
                  CHANNELS 3 Zrotation Xrotation Yrotation
                  End Site
                  {
                    OFFSET 1.69225 -0.51767 -0.607171
                  }
                }
              }
            }
          }
        }
      }
    }
  }
  JOINT rButtock
  {
    OFFSET -8.77824 4.35084 1.2192
    CHANNELS 3 Zrotation Xrotation Yrotation
    JOINT rThigh
    {
      OFFSET 0 -1.70687 -2.19456
      CHANNELS 3 Zrotation Xrotation Yrotation
      JOINT rShin
      {
        OFFSET 0 -36.8199 0.73152
        CHANNELS 3 Zrotation Xrotation Yrotation
        JOINT rFoot
        {
          OFFSET 0.73152 -45.1104 -5.12064
          CHANNELS 3 Zrotation Xrotation Yrotation
          End Site
          {
            OFFSET -1.1221 -3.69964 12.103
          }
        }
      }
    }
  }
  JOINT lButtock
  {
    OFFSET 8.77824 4.35084 1.2192
    CHANNELS 3 Zrotation Xrotation Yrotation
    JOINT lThigh
    {
      OFFSET 0 -1.70687 -2.19456
      CHANNELS 3 Zrotation Xrotation Yrotation
      JOINT lShin
      {
        OFFSET 0 -36.8199 0.73152
        CHANNELS 3 Zrotation Xrotation Yrotation
        JOINT lFoot
        {
          OFFSET -0.73152 -45.1104 -5.12064
          CHANNELS 3 Zrotation Xrotation Yrotation
          End Site
          {
            OFFSET 1.1221 -3.69964 12.103
          }
        }
      }
    }
  }
}
MOTION
Frames:	9
Frame Time:	0.03333
0.0 0.0 0.0 0.0 0.0 0.0 0.0 0.0 0.0 0.0 0.0 0.0 0.0 0.0 0.0 0.0 0.0 0.0 0.0 0.0 0.0 0.0 0.0 0.0 0.0 0.0 0.0 0.0 0.0 0.0 0.0 0.0 0.0 0.0 0.0 0.0 0.0 0.0 0.0 0.0 0.0 0.0 0.0 0.0 0.0 0.0 0.0 0.0 0.0 0.0 0.0 0.0 0.0 0.0 0.0 0.0 0.0 0.0 0.0 0.0 0.0 0.0 0.0 0.0 0.0 0.0 0.0 0.0 0.0 0.0 0.0 0.0 0.0 0.0 0.0 0.0 0.0 0.0 0.0 0.0 0.0 0.0 0.0 0.0 0.0 0.0 0.0 0.0 0.0 0.0 0.0 0.0 0.0 0.0 0.0 0.0 0.0 0.0 0.0 0.0 0.0 0.0 0.0 0.0 0.0 0.0 0.0 0.0 0.0 0.0 0.0 0.0 0.0 0.0 0.0 0.0 0.0 0.0 0.0 0.0 0.0 0.0 0.0 0.0 0.0 0.0 0.0 0.0 0.0 0.0 0.0 0.0
-2.2387 53.5961 -2.7338999999999998 -6.304442 -2.155064 2.874307 -2.968396 16.397935 0.0 0.675411 -6.917798 8.317516 8.907348 19.153625 74.039414 -33.015052 -4.815232 -61.752517 0.003025 -0.0 -0.001606 -0.0027 0.0 -0.001577 -13.74428 42.431368 15.56982 -53.173473 59.566966 118.980839 -161.21233 -66.152357 -83.107488 -9.005386 -28.426375 -7.020259 -178.926075 -16.454293 89.421845 -77.828395 9.250032 24.341215 -27.419858 30.639758 20.098867 27.665216 -28.363086 -0.525377 0.290439 -0.849642 -0.159716 -85.928848 64.24594 77.778973 -70.380241 -72.129465 -87.280418 14.728232 0.857945 -4.413757 -146.226037 15.470204 -142.748056 -41.748309 -48.475195 -42.332541 157.323434 -17.488968 -164.608768 38.151167 -14.597536 21.822083 176.626395 8.469899 129.524223 8.422007 29.744194 -1.660275 78.029568 38.689857 -42.413378 -0.843602 -14.220561 -24.737351 134.539864 10.541976 -112.296217 170.876265 -27.970807 -117.773628 -0.541584 -1.589993 0.293475 88.701675 64.085903 -80.423292 145.12006 0.226346 179.20008 76.1486 -77.984678 97.661213 162.902691 73.156873 150.754731 -0.396471 -2.60302 2.242367 -0.000614 0.000835 -0.000154 -5.112714 -21.247718 166.131865 65.975948 -61.2989 -27.358963 -43.980713 73.030118 -57.284409 179.999421 75.751661 0.000511 -159.168222 14.628458 -5.071813 27.519969 44.005384 70.631397 14.247116 -21.416588 -104.862816
-3.3160000000000003 54.1573 -4.1628 -6.398119 -0.92196 2.402418 -2.848955 16.68743 9.832001 -0.437884 -6.778945 -0.821728 -11.199241 20.440063 -58.892096 37.610038 -3.501432 72.840313 -0.000362 -0.0 0.002734 -0.000362 -0.0 0.002734 -59.832842 -86.721271 -81.633526 174.129118 -0.916375 -139.122686 -173.222346 70.327846 62.122889 -162.057622 13.431471 138.50331 -68.482346 37.953523 35.659877 -139.750961 -29.851495 85.776121 -152.315568 -18.947386 121.431386 176.302677 -50.898651 111.372669 -167.376007 -28.008347 145.269202 -25.642813 49.013842 21.163769 -71.539603 -72.141905 -88.495497 -149.92438 -26.419941 179.949844 -127.127851 -26.189313 -124.8317 -133.149429 -19.685023 -130.858542 159.222072 -48.725094 -170.566803 13.040504 5.528465 37.417182 145.644555 45.619103 150.529998 1.5608 6.094537 -0.050502 2.814384 2.753924 -0.499097 108.234586 3.455899 -98.598652 -2.324819 -3.868244 1.258291 -7.852835 5.953809 -0.459109 8.41617 20.880447 -5.645585 162.083694 -1.399367 -142.952051 0.014359 -1.323337 0.414679 -9.184466 14.19008 -1.882259 -0.098856 0.257845 -0.093926 156.045604 43.508096 149.190742 179.944411 75.749678 0.042845 174.072886 56.697494 4.894465 -67.374807 73.216627 -134.366391 135.001414 5.362102 170.946926 179.995826 75.749683 0.002856 -161.143523 16.018056 93.688853 34.432469 -24.7105 -55.507164 14.147526 14.430207 -55.727693
-4.4627 54.623999999999995 -5.7481 -6.420279 0.67557 2.06749 -1.86948 12.238113 180.0 -0.215822 2.082408 -170.272923 9.106287 20.830962 83.593275 -35.439218 1.123069 -74.136134 -0.004452 0.0 -0.003705 -0.004334 -0.0 0.001722 -158.920444 -37.397223 168.28133 -43.614876 -2.985882 -9.891967 3.67457 -19.384886 -109.878046 -161.618969 13.876045 138.322028 71.831397 -48.263139 25.79211 -55.056656 32.204376 19.651532 -0.328524 0.529693 0.185871 10.688653 1.269421 -0.362289 78.539167 -80.918065 49.689673 -168.131545 -19.010848 144.073552 -145.065778 -3.226662 -178.114341 12.391159 44.672818 -3.857713 -152.502666 38.522743 -147.799822 16.369024 43.893962 6.202231 158.897825 -36.946381 -168.196989 -121.091228 48.315847 136.468151 2.291523 20.049305 -61.276716 6.579952 18.354872 -0.17088 -0.567969 -0.561404 0.084473 97.73808 15.384458 -89.311402 1.163502 1.860443 -0.668969 8.231448 24.10044 -7.391795 -21.548469 -58.001236 -0.003034 27.946926 51.01293 -23.015355 0.014732 -1.323246 0.415262 -11.546161 -23.57275 2.841828 14.102823 -26.511089 13.432911 -4.155314 3.276641 -0.847445 -0.000335 0.000782 -0.000335 -2.43335 -18.902855 -0.0 -61.097133 65.216713 -26.736287 173.570825 -5.676164 -57.730307 0.0 0.000782 -7.4e-05 30.840295 -54.001006 -180.0 6.418796 -32.940324 143.714033 -37.761364 -38.772026 62.978831
-5.737 55.0107 -7.5297 -6.286905 2.610725 1.958336 0.665455 13.625005 -122.553218 3.772063 0.299755 132.5209 8.382283 19.751071 77.277401 -34.765654 -2.708732 -71.600202 0.001891 -0.0 -0.00426 0.00204 0.0 0.001166 0.071052 -0.427782 -0.095001 62.683224 10.971987 -5.885006 173.779783 0.845709 71.174423 -157.017518 22.956353 134.300817 11.509875 -11.486762 -0.622339 -137.332847 -35.767808 123.275378 -138.492214 4.896293 114.865393 -63.80707 56.643643 45.562737 89.034282 -81.394538 59.759027 91.968784 -78.37907 63.167292 -145.101451 -1.521528 -178.651007 -23.844071 -71.890824 -45.207221 -152.877866 39.991504 -148.058485 -147.793835 10.912932 -141.638075 13.743358 42.431593 -15.569127 68.007486 28.70654 -108.995374 110.432376 -26.097785 86.768819 -10.814969 -34.25285 -3.276149 94.79125 37.827489 -54.283798 -31.940077 -33.685158 -23.427246 160.015367 -33.012098 -122.697494 20.890249 44.759567 -11.313367 -17.126312 -49.945414 2.058 88.788726 64.008119 -80.355712 0.008606 -0.87194 0.273646 -11.570445 -26.223768 3.146434 145.172311 12.067496 141.823597 142.471499 -1.920539 137.924575 -179.998876 75.748568 -0.0 177.816528 54.192448 -170.403147 53.062878 -75.577193 131.832588 -175.965412 -47.783246 -76.217806 0.0 0.001074 -0.000874 27.080043 -52.130836 32.930239 16.192616 21.255489 -41.307709 98.100033 -7.98074 -39.170925
-7.106700000000001 55.2811 -9.4818 -6.030728 4.930037 2.086737 -1.126062 12.751721 -174.911155 -0.004241 2.435737 -174.337654 -12.531273 25.140131 -86.467908 41.987131 12.65599 86.905262 0.003535 -0.0 -0.005131 -0.001989 -0.0 0.000454 -147.865607 28.559972 152.690144 -70.452412 28.450484 48.736644 6.441615 -27.183301 -102.717898 -160.245104 16.365843 137.3099 -121.364344 30.329357 71.95786 -89.089417 -4.232812 52.369723 -27.610193 30.765425 20.25545 4.72731 4.521685 -0.691805 173.126833 -66.298127 137.61752 -34.820077 54.963735 29.308824 -145.100081 -1.521548 -178.651058 -73.591191 -78.005293 -95.236779 -24.986117 -37.660649 -24.058631 -127.998192 -28.854357 -126.924276 -4.209871 -43.443076 8.383395 108.080712 -13.277716 159.188861 161.603579 -18.861076 112.771928 3.794362 5.139399 0.961882 178.929286 -16.453028 -89.420893 0.362037 -58.031154 -3.826369 -60.463757 -70.522704 -15.714669 7.59837 32.784403 -6.769891 -0.047146 -0.138857 0.024592 -80.537032 -78.005188 -52.07134 -0.004361 1.770482 -0.555991 -9.09018 12.71425 -1.664182 15.850958 -28.703229 15.128043 13.413083 -31.190177 15.149268 0.0019 -0.000634 0.0 -0.665436 -20.361405 -0.243936 -55.097412 69.423743 -40.35804 159.412207 17.551114 -49.310629 -179.995633 75.750349 -0.004505 -165.685493 17.714191 53.722339 39.769689 4.779389 67.966896 -107.327999 -21.584179 146.145333
-8.541799999999999 55.408500000000004 -11.576699999999999 -5.679784 7.750992 2.348822 -1.55181 17.863445 5.047026 0.213771 -7.430501 5.807708 8.015101 19.523983 77.755247 -36.6663 -1.836087 -77.384423 -0.003649 0.0 -0.001003 0.002002 0.0 0.000616 -44.920925 -86.287687 -66.528956 103.171055 49.458387 -95.149769 -178.710393 2.474434 76.011882 -160.285733 16.326345 137.328629 27.4519 -26.098791 2.267469 -100.991856 29.319381 83.878648 73.420124 -73.571196 26.564159 -11.390268 36.458478 9.167634 -82.840721 61.109472 74.532362 -88.542961 63.895113 80.468077 -145.120024 0.309722 -179.226492 -156.517785 15.308951 178.978351 -23.389032 -36.350305 -22.492237 -128.028452 -28.873601 -126.942227 6.029769 25.556962 -7.219988 172.684325 -51.041656 -109.189344 160.46888 77.452254 129.998179 7.602999 15.915576 0.308671 0.544628 0.53591 -0.086302 -35.361389 -57.532144 17.647419 -60.464426 -70.52241 -15.714608 6.330685 31.591388 -5.905948 167.297865 -27.767793 -145.259132 -2.305803 2.417457 -0.688452 -0.00617 1.771436 -0.556125 23.524184 72.950868 -36.405963 74.132594 -51.748022 72.617861 143.141786 2.068832 140.255311 179.998059 75.748537 -0.0 179.993103 53.820066 0.005486 -5.94058 77.281226 109.794956 -161.87411 -12.92695 147.934021 -179.988619 75.748532 -0.007787 -166.287335 15.488635 -25.350102 -10.094027 29.849275 -32.940418 47.82709 48.240989 12.569704
-10.0591 55.427899999999994 -13.793 -5.2676 11.054407 2.575589 -2.341167 18.325804 27.997079 -1.710352 -7.370035 -17.744369 -12.933219 23.872848 -81.484975 43.893873 7.729666 77.653214 0.001444 -0.0 -0.001904 -0.004275 0.0 -0.001599 -157.881361 -65.637918 175.444348 124.210147 45.800031 -127.312529 173.353517 1.097298 76.301406 -156.785839 23.317498 134.108435 -166.74483 -4.418723 89.779438 114.893971 -59.306827 82.693779 -18.649601 23.634455 12.970666 8.359606 0.519843 -0.908208 89.035821 -81.392422 59.760778 -170.384292 -25.696026 144.089218 -69.298888 72.946223 87.017297 -156.411185 -45.755158 -176.294331 -143.045167 5.648641 -139.914145 -148.030457 13.4715 -142.111905 155.45978 -3.227817 -161.777546 -139.075992 -16.095064 171.540315 -165.407346 20.627346 -83.145886 -177.437572 -2.928364 -144.151956 164.698439 -2.372026 -89.584903 120.860889 9.763248 -56.681104 -19.567679 -35.04055 5.986964 84.597644 48.500164 -69.347548 160.826794 -7.141748 -143.316192 -86.520976 -77.968214 -57.798975 0.006769 3.472264 -1.089832 23.639071 72.949112 -36.384841 126.79931 -26.619593 124.512158 -16.641182 41.520961 -6.274642 0.00069 -0.000525 0.000172 0.33295 -23.808127 -0.0 -33.597698 70.316658 -15.343702 97.090212 -2.341691 9.121854 0.0 -0.000452 0.002187 26.479717 -61.847164 -70.893763 -44.073398 6.418276 171.922363 -37.517603 41.97829 -35.319436
-11.6752 55.4032 -16.0997 -4.929847 14.659573 2.678848 -0.641433 14.713646 -177.476086 -0.745446 3.101884 -173.685566 -12.573815 26.334313 -96.961124 45.399997 17.129075 86.707258 0.000966 -0.0 -0.003903 0.000944 -0.0 -0.002025 -13.744229 42.431378 15.569793 -112.684551 6.096362 133.483452 105.720848 6.666832 -91.807367 -43.614602 43.460664 23.326914 -68.483021 37.952902 35.659695 35.218991 -31.470288 16.652023 -4.70668 7.223894 2.85537 -61.355096 48.024584 46.346086 -0.339226 0.981939 0.190062 -13.368842 36.411592 10.635173 -0.015406 -1.323427 -0.414069 -156.300458 -22.189281 174.45766 -145.174788 12.067739 -141.822152 -140.962824 -5.485264 -136.71309 44.039603 64.187216 -46.71011 102.489122 12.520623 -95.130765 163.347282 6.069338 115.069764 4.306174 7.740851 0.76994 -6.46354 -6.452724 0.634462 116.609715 0.088296 -105.52565 27.422469 30.639038 -20.098503 161.197816 -7.777183 -110.923935 160.097997 -4.901049 -142.969412 158.678954 8.346049 -141.069089 145.113028 -0.626781 178.930409 151.047482 -31.74292 173.873944 0.293422 -0.752922 0.268152 165.206229 69.561295 149.090973 179.9885 75.749353 0.007868 -179.42378 49.773247 -0.0 7.15136 72.562047 40.575442 -158.087979 42.610475 65.752251 -0.003874 0.000289 -0.001937 23.351949 -64.62982 21.507197 -10.627877 55.212525 -127.059564 -142.831902 35.775837 -176.256329
